<svg xmlns="http://www.w3.org/2000/svg" viewBox="0 0 529.2 68.13"><g data-name="Layer 2"><path d="M474.84 68c4.23 0 7.92-.36 12.69-.36h24.57c5.76 0 11.25.36 13.23.36 2.7 0 3.87-1.26 3.87-4.23 0-1.53-.27-5-.27-8.73 0-2.34.27-5.31.27-6.48 0-2.7-1.35-4.32-3.87-4.32s-3.87 1.62-3.87 4c0 1 .36 3.06.36 4.86 0 5.76-2.52 7.74-9.54 7.74h-12.42c-5.85 0-7-1.26-7-7.11V39.51c0-3.33.72-4.14 3.69-4.14h3.06c4.41 0 5.94 1 5.94 3.78 0 .81-.18 2.7-.18 3.24 0 2.43 1.35 3.78 3.69 3.78 2.61 0 3.87-1.44 3.87-4.32s-.54-6.12-.54-9.45.54-6.57.54-9.36c0-3-1.26-4.59-3.87-4.59-2.34 0-3.69 1.44-3.69 3.87 0 .54.18 2.43.18 3.33 0 2.7-1.53 3.69-5.94 3.69h-3.06c-3 0-3.69-.81-3.69-4.05V13.77c0-5.49 1.08-6.48 6.39-6.48h12.33c6.48 0 8.91 1.8 8.91 6.66 0 1.89-.36 4-.36 4.86 0 2.52 1.44 4.05 3.87 4.05s4-1.53 4-4.23c0-1.17-.27-4.23-.27-6.48 0-3.33.27-6.39.27-7.74 0-3-1.26-4.23-4-4.23-2.52 0-7.65.36-13.23.36h-23.24c-4.77 0-8.46-.36-12.69-.36-3.06 0-4.5 1.44-4.5 4.05 0 2.25 1.44 3.69 3.87 3.69 1 0 3.6-.54 5-.54 2.88 0 4 1.71 4 6.12v41.22c0 4.41-1.08 6.12-4 6.12-1.44 0-4.05-.54-5-.54-2.43 0-3.87 1.44-3.87 3.69 0 2.61 1.44 4.05 4.5 4.05m-30.06-54.18v37.53c0 1-.09 1.35-.54 1.35s-.81-.27-1.44-1.35l-26.1-47c-1.8-3.15-3.15-4.14-6.93-4.14-1.71 0-4.5.36-7.2.36-3.69 0-6.57-.45-9.81-.45-3.06 0-4.5 1.44-4.5 4.05 0 2.25 1.44 3.69 3.87 3.69 1 0 3.51-.54 4.86-.54 3.24 0 4.41 1.8 4.41 6.48v40.5c0 4.68-1.17 6.48-4.41 6.48-1.35 0-3.87-.54-4.86-.54-2.43 0-3.87 1.44-3.87 3.69 0 2.61 1.44 4.05 4.5 4.05 4.32 0 8.28-.45 13.05-.45s8.73.45 13.05.45c3.06 0 4.59-1.44 4.59-4.05 0-2.25-1.44-3.69-4-3.69-1 0-3.51.54-4.86.54-3.24 0-4.41-1.8-4.41-6.48V15.21c0-1.08.09-1.35.63-1.35s.72.27 1.35 1.35l27.27 47.7c2.43 4.32 3.42 5.22 7.83 5.22h.81c3.78 0 5.49-1.71 5.49-5.22v-49c0-4.59 1.26-6.39 4.59-6.39 1.08 0 3.33.36 4.23.36a3.29 3.29 0 0 0 3.51-3.6c0-2.61-1.53-4.05-4.5-4.05-4.14 0-7.65.45-12.15.45-4.77 0-8.82-.45-13.23-.45-3 0-4.5 1.44-4.5 4.05 0 2.25 1.44 3.69 3.87 3.69 1.08 0 3.51-.54 4.95-.54 3.15 0 4.41 1.8 4.41 6.48M350.82 68c4.41 0 8.46-.45 13.41-.45s9.09.45 13.5.45c3 0 4.59-1.44 4.59-4.05a3.55 3.55 0 0 0-3.87-3.69c-1.26 0-3.78.54-5.22.54-3.06 0-4.14-1.89-4.14-6.84V14.22c0-5 1.08-6.84 4.14-6.84 1.44 0 4 .54 5.22.54a3.55 3.55 0 0 0 3.87-3.69c0-2.61-1.62-4.05-4.59-4.05-4.41 0-8.55.45-13.5.45s-9-.45-13.41-.45c-3.06 0-4.59 1.44-4.59 4.05 0 2.25 1.44 3.69 3.87 3.69 1.17 0 3.78-.54 5.22-.54 3.06 0 4.14 1.89 4.14 6.84V54c0 5-1.08 6.84-4.14 6.84-1.44 0-4.05-.54-5.22-.54-2.43 0-3.87 1.44-3.87 3.69 0 2.61 1.53 4.05 4.59 4.05m-63.45 0c4.23 0 7.92-.36 12.69-.36H323c5.76 0 11.25.36 13.23.36 2.79 0 4-1.26 4-4.23 0-1.71-.18-5.67-.18-10 0-2.61.18-6 .18-7.38 0-2.7-1.44-4.23-4-4.23a3.71 3.71 0 0 0-4 4c0 1.17.36 3.6.36 5.76 0 6.66-2.52 8.91-9.9 8.91h-9.63c-6.39 0-7.74-1.44-7.74-7.83V14.31c0-5 1.17-6.93 4.5-6.93 1.44 0 4.05.54 5.22.54 2.43 0 4-1.44 4-3.69 0-2.61-1.53-4.05-4.59-4.05-4.59 0-8.73.45-13.95.45-4.86 0-8.82-.45-13.14-.45-3.06 0-4.5 1.44-4.5 4.05 0 2.25 1.44 3.69 3.87 3.69 1 0 3.51-.54 4.86-.54 3 0 4.14 1.71 4.14 6.12v41.22c0 4.41-1.17 6.12-4.14 6.12-1.35 0-3.87-.54-4.86-.54-2.43 0-3.87 1.44-3.87 3.69 0 2.61 1.44 4.05 4.5 4.05m-41.75-6.84c-9.27 0-10.8-1.08-10.8-7.56v-40.5c0-5.22 1.53-6.12 10.71-6.12 16.2 0 23.58 8.55 23.58 27.27S262 61.2 245.61 61.2m.63 6.93q32.67 0 32.67-34.29c0-22.68-10.62-33.75-32.49-33.75-4.32 0-13.41.45-15.93.45-5 0-9.09-.36-13.68-.36-3 0-4.5 1.35-4.5 4.05 0 2.25 1.44 3.69 3.87 3.69 1 0 3.6-.54 5-.54 2.88 0 4 1.71 4 6.12v41.22c0 4.41-1.08 6.12-4 6.12-1.44 0-4.05-.54-5-.54-2.43 0-3.87 1.44-3.87 3.69 0 2.7 1.53 4.05 4.5 4.05 4.59 0 8.64-.36 13.68-.36 2.52 0 11.61.45 15.75.45M164 36.45c-1.62 0-2-.72-1.26-2.7l7.83-22.41c.36-1 .54-1.26 1.08-1.26s.63.27 1 1.26l7.83 22.41c.72 2 .36 2.7-1.26 2.7zm32.85 17.1l-17.37-48c-1.62-4.41-2.7-5.58-7-5.58h-1.17c-4.41 0-5.4 1.17-7 5.58l-17.46 48c-2.07 5.76-3.69 6.66-7.29 6.84-2.43.18-3.69 1.44-3.69 3.78 0 2.61 1.44 3.87 4.32 3.87 3.42 0 6.48-.36 10.44-.36 4.41 0 8.46.36 12.51.36 2.88 0 4.41-1.44 4.41-4.05 0-2.25-1.44-3.69-3.87-3.69-.9 0-2.34.36-4.14.36-3 0-4.5-1.17-4.5-3.51a11.45 11.45 0 0 1 .81-3.69l2.79-7.83c.45-1.35 1.17-2.16 2.61-2.16h20.55a2.72 2.72 0 0 1 2.79 2.16l2.79 7.83a11.45 11.45 0 0 1 .81 3.69q0 3.51-4.59 3.51c-1.71 0-3.06-.36-4-.36a3.55 3.55 0 0 0-3.92 3.7c0 2.61 1.62 4.05 4.41 4.05 4.14 0 8.19-.36 12.87-.36 3.87 0 7.11.36 10.62.36 2.88 0 4.32-1.26 4.32-3.87 0-2.34-1.26-3.6-3.69-3.78-3.69-.18-5.31-1.08-7.38-6.84M75.06 68c4.23 0 7.92-.36 12.69-.36h24.57c5.76 0 11.25.36 13.23.36 2.7 0 3.87-1.26 3.87-4.23 0-1.53-.27-5-.27-8.73 0-2.34.27-5.31.27-6.48 0-2.7-1.35-4.32-3.87-4.32s-3.87 1.62-3.87 4c0 1 .36 3.06.36 4.86 0 5.76-2.52 7.74-9.54 7.74h-12.42c-5.85 0-7-1.26-7-7.11V39.51c0-3.33.72-4.14 3.69-4.14h3.06c4.41 0 5.94 1 5.94 3.78 0 .81-.18 2.7-.18 3.24 0 2.43 1.35 3.78 3.69 3.78 2.61 0 3.87-1.44 3.87-4.32s-.54-6.12-.54-9.45.54-6.57.54-9.36c0-3-1.26-4.59-3.87-4.59-2.34 0-3.69 1.44-3.69 3.87 0 .54.18 2.43.18 3.33 0 2.7-1.53 3.69-5.94 3.69h-3.08c-3 0-3.69-.81-3.69-4.05V13.77c0-5.49 1.08-6.48 6.39-6.48h12.33c6.48 0 8.91 1.8 8.91 6.66 0 1.89-.36 4-.36 4.86 0 2.52 1.44 4.05 3.87 4.05s4-1.53 4-4.23c0-1.17-.27-4.23-.27-6.48 0-3.33.27-6.39.27-7.74 0-3-1.26-4.23-4-4.23-2.52 0-7.65.36-13.23.36H87.75C83 .54 79.29.18 75.06.18c-3.06 0-4.5 1.44-4.5 4.05 0 2.25 1.44 3.69 3.87 3.69 1 0 3.6-.54 5-.54 2.88 0 4 1.71 4 6.12v41.22c0 4.41-1.08 6.12-4 6.12-1.44 0-4-.54-5-.54-2.43 0-3.87 1.44-3.87 3.69 0 2.61 1.44 4.01 4.5 4.01M33.3 61.2c-9.27 0-10.8-1.08-10.8-7.56v-40.5C22.5 7.92 24 7 33.21 7c16.2 0 23.58 8.55 23.58 27.27S49.68 61.2 33.3 61.2m.63 6.93q32.67 0 32.67-34.29C66.6 11.16 56 .09 34.11.09c-4.32 0-13.41.45-15.93.45C13.14.54 9.09.18 4.5.18 1.53.18 0 1.53 0 4.23c0 2.25 1.44 3.69 3.87 3.69 1 0 3.6-.54 5-.54 2.88 0 4 1.71 4 6.12v41.22c0 4.41-1.08 6.12-4 6.12-1.44 0-4-.54-5-.54C1.44 60.3 0 61.74 0 64c0 2.69 1.53 4 4.5 4 4.59 0 8.64-.36 13.68-.36 2.52 0 11.61.45 15.75.45" data-name="Layer 1"></path></g></svg>