<?xml version="1.0" encoding="UTF-8" standalone="no"?>
<svg
   xmlns:dc="http://purl.org/dc/elements/1.1/"
   xmlns:cc="http://creativecommons.org/ns#"
   xmlns:rdf="http://www.w3.org/1999/02/22-rdf-syntax-ns#"
   xmlns:svg="http://www.w3.org/2000/svg"
   xmlns="http://www.w3.org/2000/svg"
   id="svg2106"
   version="1.1"
   viewBox="0 0 135.46667 31.819965"
   height="31.819965mm"
   width="135.46667mm">
  <defs
     id="defs2100">
    <filter
       id="filter20437"
       style="color-interpolation-filters:sRGB">
      <feColorMatrix
         id="feColorMatrix20435"
         result="color2"
         values="-1 0 0 0 1 0 -1 0 0 1 0 0 -1 0 1 -0.21 -0.72 -0.07 2 0 " />
    </filter>
  </defs>
  <metadata
     id="metadata2103">
    <rdf:RDF>
      <cc:Work
         rdf:about="">
        <dc:format>image/svg+xml</dc:format>
        <dc:type
           rdf:resource="http://purl.org/dc/dcmitype/StillImage" />
        <dc:title></dc:title>
      </cc:Work>
    </rdf:RDF>
  </metadata>
  <g
     transform="translate(434.63669,-785.72647)"
     id="layer1">
    <g
       transform="matrix(0.11773566,0,0,0.11773566,-383.46451,721.29218)"
       id="g20560">
      <g
         id="g20536">
        <path
           style="fill:#0a1320;fill-opacity:1;stroke-width:0.04029818"
           id="path1544"
           d="m -236.03783,648.14099 c 0,54.84138 -44.45778,99.29916 -99.29919,99.29916 -54.84141,0 -99.29915,-44.45778 -99.29915,-99.29916 0,-54.84142 44.45774,-99.29919 99.29915,-99.29919 54.84141,0 99.29919,44.45777 99.29919,99.29919 z" />
        <path
           id="path1599"
           d="m -362.7713,607.30783 h 15.24179 v 17.40903 c 0,0 4.8017,-4.00955 12.19322,-4.00955 15.15131,0 27.43395,12.28225 27.43395,27.43395 0,15.15171 -12.2837,27.43437 -27.43501,27.43396 -15.15133,0 -27.43395,-12.28225 -27.43395,-27.43396 z m -30.937,13.39948 c 15.15129,0 27.43396,12.28225 27.43396,27.43395 h 10e-4 v 26.98904 h -15.24179 v -4.72417 c 0,0 -4.22871,5.16909 -12.19322,5.16909 -15.1517,0 -27.43395,-12.28225 -27.43395,-27.43396 0,-15.15131 12.28225,-27.43395 27.43395,-27.43395 z m 116.74296,0 c 13.96778,0 25.48895,10.44037 27.20566,23.94153 h -15.52638 c -1.50234,-5.03084 -6.15963,-8.7008 -11.67928,-8.7008 -6.73384,0 -12.19322,5.45899 -12.19322,12.19322 0,6.7338 5.45899,12.19323 12.19322,12.19323 5.51965,0 10.17694,-3.66996 11.67928,-8.7008 h 15.52638 c -1.71671,13.50152 -13.23829,23.94194 -27.20566,23.94153 -15.15135,0 -27.43396,-12.28225 -27.43396,-27.43396 0,-15.15131 12.2822,-27.43395 27.43396,-27.43395 z m -116.74296,15.24073 c -6.7338,0 -12.19322,5.45899 -12.19322,12.19322 0,6.7338 5.45901,12.19323 12.19322,12.19323 6.73423,0 12.19322,-5.45901 12.19322,-12.19323 0,-6.73382 -5.45899,-12.19322 -12.19322,-12.19322 z m 58.37095,0 c -6.73419,0 -12.19322,5.4594 -12.19322,12.19322 0,6.73422 5.45903,12.19323 12.19322,12.19323 6.73423,0 12.19322,-5.45943 12.19322,-12.19323 0,-6.73382 -5.45899,-12.19322 -12.19322,-12.19322 z"
           style="fill:#ffffff;stroke-width:0.04029818" />
      </g>
      <g
         id="g20530">
        <path
           id="path19228"
           d="m 97.72998,586.34945 c 0,-8.3468 -2.042332,-16.60484 -6.926069,-23.44208 -8.613223,-11.89863 -19.801489,-14.11855 -33.47603,-14.11855 h -25.04041 v 75.65398 h 26.46114 c 24.774046,0 38.981369,-13.23053 38.981369,-38.09335 z m -19.357477,0.35518 c 0,12.25382 -5.327749,20.77821 -18.469518,20.77821 H 51.55618 v -41.73401 h 8.435573 c 12.875412,0 18.38075,8.87959 18.38075,20.9558 z m 0,0"
           style="fill:#fec526;fill-opacity:1;stroke:none;stroke-width:5.68292856" />
        <path
           id="path19232"
           d="m -153.09742,585.37268 c 0,-1.33192 0,-2.66389 -0.0887,-3.99579 h -44.93065 v 15.45046 h 22.64294 c -2.39745,8.3468 -9.85629,12.16499 -18.11433,12.16499 -12.87535,0 -20.77821,-10.3003 -20.77821,-22.73171 0,-11.89864 8.25804,-21.93253 20.68944,-21.93253 7.10366,0 13.14178,3.55183 16.6936,9.76754 h 21.66616 c -4.61737,-16.16083 -21.48857,-26.81633 -37.82698,-26.81633 -22.19894,0 -40.5797,16.33843 -40.5797,38.98132 0,22.46535 17.93675,39.69173 40.22451,39.69173 23.26449,0 40.40204,-17.40396 40.40204,-40.57968 z m 0,0"
           style="fill:#fec526;fill-opacity:1;stroke:none;stroke-width:5.68292856" />
        <path
           id="path19236"
           d="m 481.45639,624.4428 v -75.65398 h -19.35747 v 75.65398 z m 0,0"
           style="fill:#fec526;fill-opacity:1;stroke:none;stroke-width:5.68292856" />
        <path
           id="path19240"
           d="m 222.85822,624.4428 v -75.65398 h -24.95164 l -14.82886,49.81445 h -0.26653 l -15.00646,-49.81445 h -24.86282 v 75.65398 h 17.84793 l -0.62154,-56.65169 0.1773,-0.26653 16.16083,56.91805 h 12.78659 l 16.16083,-56.91805 0.1773,0.26653 -0.62159,56.65169 z m 0,0"
           style="fill:#fec526;fill-opacity:1;stroke:none;stroke-width:5.68292856" />
        <path
           id="path19244"
           d="m 452.36277,624.4428 v -75.65398 h -18.46952 l 0.7992,47.32816 -0.26653,0.17731 -29.21378,-47.50576 h -16.6936 v 75.65398 h 18.55827 l -0.53248,-45.90737 0.1773,-0.0887 28.85866,45.9962 z m 0,0"
           style="fill:#fec526;fill-opacity:1;stroke:none;stroke-width:5.68292856" />
        <path
           id="path19248"
           d="m -64.335842,586.61581 c 0,-22.28771 -17.936745,-39.3365 -39.958088,-39.3365 -12.96419,0 -24.24122,5.32775 -32.05525,15.62806 -1.95351,2.48628 -3.81825,5.50533 -4.8838,8.43557 -2.04226,5.23897 -3.01905,10.56672 -3.01905,16.16083 0,21.84375 18.46952,38.35977 39.78052,38.35977 22.198923,0 40.135675,-16.8712 40.135668,-39.24773 z m -19.357475,0.0887 c 0,11.54344 -8.16921,22.19894 -20.334203,22.19894 -12.609,0 -20.86704,-10.4779 -20.86704,-22.55413 0,-11.80986 8.25804,-22.02135 20.68944,-22.02135 12.342593,0 20.511803,10.56667 20.511803,22.37654 z m 0,0"
           style="fill:#fec526;fill-opacity:1;stroke:none;stroke-width:5.68292856" />
        <path
           id="path19252"
           d="m 380.01536,624.4428 -20.60062,-25.75076 c 11.98746,-1.95352 18.8247,-12.16499 18.8247,-23.88604 0,-7.81403 -3.01905,-15.62806 -9.32353,-20.60062 -6.48211,-5.23897 -15.27286,-5.41656 -23.26449,-5.41656 h -23.97485 v 75.65398 h 18.55829 V 600.024 h 0.1773 l 17.4928,24.4188 z m -20.24543,-48.48248 c 0,7.81403 -5.41652,10.83308 -12.69776,10.83308 h -6.83731 v -21.04457 h 7.01489 c 6.65966,0 12.52018,2.75264 12.52018,10.21149 z m 0,0"
           style="fill:#fec526;fill-opacity:1;stroke:none;stroke-width:5.68292856" />
        <path
           id="path19256"
           d="m 22.807629,586.61581 c 0,-22.28771 -17.9367451,-39.3365 -39.958086,-39.3365 -12.964187,0 -24.24122,5.32775 -32.055245,15.62806 -1.953511,2.48628 -3.818246,5.50533 -4.883799,8.43557 -2.042263,5.23897 -3.019055,10.56672 -3.019055,16.16083 0,21.84375 18.469525,38.35977 39.78051,38.35977 22.1989366,0 40.135675,-16.8712 40.135675,-39.24773 z m -19.3574686,0.0887 c 0,11.54344 -8.16921,22.19894 -20.3342004,22.19894 -12.609003,0 -20.867041,-10.4779 -20.867041,-22.55413 0,-11.80986 8.258038,-22.02135 20.689452,-22.02135 12.3425794,0 20.5117894,10.56667 20.5117894,22.37654 z m 0,0"
           style="fill:#fec526;fill-opacity:1;stroke:none;stroke-width:5.68292856" />
        <path
           id="path19260"
           d="m 313.20463,586.61581 c 0,-22.28771 -17.93674,-39.3365 -39.95809,-39.3365 -12.96417,0 -24.24121,5.32775 -32.05524,15.62806 -1.95351,2.48628 -3.81824,5.50533 -4.88379,8.43557 -2.04228,5.23897 -3.01906,10.56672 -3.01906,16.16083 0,21.84375 18.46952,38.35977 39.7805,38.35977 22.19894,0 40.13568,-16.8712 40.13568,-39.24773 z m -19.35747,0.0887 c 0,11.54344 -8.16921,22.19894 -20.33421,22.19894 -12.60899,0 -20.86703,-10.4779 -20.86703,-22.55413 0,-11.80986 8.25804,-22.02135 20.68945,-22.02135 12.34258,0 20.51179,10.56667 20.51179,22.37654 z m 0,0"
           style="fill:#fec526;fill-opacity:1;stroke:none;stroke-width:5.68292856" />
        <path
           id="path19264"
           d="M 554.94522,624.44308 V 548.7891 H 536.4757 l 0.79919,47.32816 -0.26653,0.17732 -29.21378,-47.50577 h -16.6936 v 75.65399 h 18.55829 l -0.53249,-45.90738 0.1773,-0.0887 28.85865,45.9962 z m 0,0"
           style="fill:#fec526;fill-opacity:1;stroke:none;stroke-width:5.68292856" />
        <path
           id="path19268"
           d="m 646.13006,585.37268 c 0,-1.33192 0,-2.66389 -0.0888,-3.99579 H 601.1106 v 15.45046 h 22.64295 c -2.39746,8.3468 -9.8563,12.16499 -18.11433,12.16499 -12.87536,0 -20.77821,-10.3003 -20.77821,-22.73171 0,-11.89864 8.25803,-21.93253 20.68944,-21.93253 7.10367,0 13.14177,3.55183 16.6936,9.76754 h 21.66614 c -4.61738,-16.16083 -21.48854,-26.81633 -37.82696,-26.81633 -22.19894,0 -40.57969,16.33843 -40.57969,38.98132 0,22.46535 17.93675,39.69173 40.22451,39.69173 23.26445,0 40.40203,-17.40396 40.40203,-40.57968 z m 0,0"
           style="fill:#fec526;fill-opacity:1;stroke:none;stroke-width:5.68292856" />
        <path
           id="path19390"
           d="m -104.13918,814.25013 -69.81946,-175.47545 h -35.21868 l -70.64326,175.47545 h 48.19395 l 9.268,-25.33264 h 60.96332 l 8.65026,25.33264 z m -68.9956,-60.96332 h -36.86641 l 18.12423,-60.13945 h 0.61824 z m 0,0"
           style="fill:#fec526;fill-opacity:1;stroke:none;stroke-width:13.18125534" />
        <path
           id="path19394"
           d="m 554.56536,748.54983 h -46.95822 c -7.82638,17.30046 -22.65528,29.6579 -42.22126,29.6579 -28.83401,0 -47.37015,-25.12681 -47.37015,-52.31315 0,-26.98044 18.53614,-51.07735 46.95822,-51.07735 19.77188,0 35.63067,12.56334 42.63319,30.48167 h 46.95822 c -1.64766,-10.09202 -6.17872,-20.18382 -11.9455,-28.62811 -17.50647,-26.56843 -45.5166,-41.39733 -77.23398,-41.39733 -51.07741,0 -92.0628,39.54377 -92.0628,91.03305 0,51.48928 41.39733,91.23896 92.47473,91.23896 42.42716,0 78.46971,-27.59828 88.76755,-68.99564 z m 0,0"
           style="fill:#fec526;fill-opacity:1;stroke:none;stroke-width:13.18125534" />
        <path
           id="path19398"
           d="m 163.63653,814.25013 v -39.33775 h -54.5787 v -30.15262 h 52.93104 v -39.3378 h -52.93104 v -27.3094 h 54.5787 V 638.77468 H 66.012838 v 175.47545 z"
           style="fill:#fec526;fill-opacity:1;stroke:none;stroke-width:13.18125534" />
        <path
           id="path19402"
           d="M 362.77421,814.25013 V 638.77468 h -44.89869 v 175.47545 z m 0,0"
           style="fill:#fec526;fill-opacity:1;stroke:none;stroke-width:13.18125534" />
        <path
           id="path19406"
           d="m -132.22598,638.77479 v 71.39294 l 41.413129,104.08224 -1.442145,-131.40062 0.411203,-0.618 37.498612,132.01827 h 29.669243 l 37.498611,-132.01827 0.411543,0.618 -1.442483,131.40062 H 53.206946 V 638.77479 H -4.6893949 L -39.097627,754.31682 h -0.618365 L -74.536105,638.77479 Z"
           style="opacity:1;fill:#fec526;fill-opacity:1;stroke:none;stroke-width:13.1837883" />
        <path
           id="path19410"
           d="m 312.37413,814.25013 -47.78202,-59.72758 c 27.80424,-4.53108 43.6629,-28.21604 43.6629,-55.40237 0,-18.12422 -7.00259,-36.24845 -21.62545,-47.78209 -15.03493,-12.15153 -35.42465,-12.56341 -53.96073,-12.56341 h -55.60846 v 175.47545 h 43.04499 V 757.612 h 0.41123 l 40.5736,56.63813 z M 265.41592,701.79754 c 0,18.12421 -12.56334,25.12674 -29.45184,25.12674 h -15.85872 v -48.81172 h 16.27066 c 15.44672,0 29.0399,6.38455 29.0399,23.68498 z m 0,0"
           style="fill:#fec526;fill-opacity:1;stroke:none;stroke-width:13.18125534" />
        <path
           id="path19414"
           d="M 715.964,814.25013 646.14447,638.77468 h -35.21862 l -70.64333,175.47545 h 48.19396 l 9.26815,-25.33264 h 60.96331 l 8.65018,25.33264 z m -68.99567,-60.96332 h -36.86627 l 18.12422,-60.13945 h 0.61818 z m 0,0"
           style="fill:#fec526;fill-opacity:1;stroke:none;stroke-width:13.18125534" />
      </g>
    </g>
  </g>
</svg>
