<?xml version="1.0" encoding="UTF-8" standalone="no"?><svg viewBox="0 0 700.51217 100" aria-labelledby="msnbc_logo" version="1.1" width="700.51215" height="100" xmlns="http://www.w3.org/2000/svg" xmlns:svg="http://www.w3.org/2000/svg"><path d="M119.99168 23.940855 95.664364 79.500332l-6.958753-48.277408c-.862931-6.580796 10.303192-10.626441 10.303192-10.626441-1.024855-2.265543-4.531219-2.211569-4.531219-2.211569h-7.55181C85.738995 6.5178048 96.527294-2.1667564 108.12455.47637104c11.436 2.53524306 15.58939 14.99570296 11.86713 23.41057596" fill="#6e55dc"/><path d="M74.842079 97.516593 27.427933 65.906808c-12.082896-8.03725-24.00394.161858-26.53918376 8.630507C-2.8332008 87.052142 5.5277114 97.516593 18.635436 97.516593Z" fill="#fccc12"/><path d="M81.045851 19.19387C82.826354 6.9491836 71.822155-2.1669363 59.900981.53013462 48.46545 3.0653757 44.311988 15.525848 48.033918 23.940722l24.327319 55.55961 8.684614-60.360437Z" fill="#ef1541"/><path d="M70.41881 88.616079 47.062505 35.430095c-5.448058-12.35257-19.958288-13.862932-27.941629-6.634838-5.609916 5.124476-9.9791441 18.987407 2.589192 27.402214L70.41881 88.670054Z" fill="#ff7112"/><path d="M149.4446 97.516593c13.10789 0 21.46865-10.410476 17.74706-22.979278-2.53549-8.468649-14.45659-16.721665-26.53962-8.630441L93.237496 97.516593Z" fill="#05ac3f"/><path d="M146.31473 56.197471c12.5688-8.414807 8.19951-22.277738 2.58946-27.402214-7.98361-7.228094-22.49351-5.717732-27.94163 6.634838L97.606124 88.670054Z" fill="#069de0"/><path d="M261.31774 2.5801754 233.69996 53.932328 206.0282 2.5801754h-22.22429V97.517259h20.87559V43.521652l22.54748 40.078767h12.94596l22.54748-40.078767v53.995607h20.87559V2.5801754Z"/><path d="m687.45824 66.716297-.53975-.647298-.70634-.809156c-9.38229 7.983409-15.37283 12.514628-28.90984 12.514628h-.59306c-18.60998 0-30.15326-14.456522-30.15326-27.833947 0-15.373293 13.59299-27.833746 30.26121-27.833746 13.42907.107883 20.55241 7.335977 23.95083 10.788233l.53974.539415.37316-.377557.05997-.053975.31986-.323649.59305-.593323 14.34664-14.348439C695.27459 16.011355 681.90083.04473843 656.97913.04473843c-28.64331 0-52.43154 21.79229857-52.59347 49.78790257 0 27.186183 22.87133 50.057511 52.32359 50.165461 22.17299 0 33.38776-9.062439 43.8029-18.016261l-13.10722-15.265544Z"/><path d="M595.64708 67.633203c0 25.837944-20.65903 29.88339-33.60499 29.88339h-55.18225V2.5256742h55.12827c16.88346 0 30.42248 9.6015598 30.42248 27.6179538 0 8.90038-6.25708 13.809023-11.05751 16.236357 7.82102 3.937763 14.294 9.763445 14.294 21.253218Zm-68.6673-47.252953v17.962486h32.52683c5.39414 0 11.27407-2.211569 11.27407-8.900314 0-6.688746-4.5852-9.062172-12.02906-9.062172Zm47.19865 47.252953c0-9.116347-7.60579-11.489773-14.99567-11.489773h-32.20298v22.65523h32.95862c6.04118 0 14.24003-2.103685 14.24003-11.219432Z"/><path d="M400.21693 2.5256742h22.2776l45.85061 61.4392398V2.5256742h20.87493V97.516593h-22.27761L421.09252 35.96931v61.547283h-20.87559Z"/><path d="M367.8527 43.952985c-15.96655-6.796563-44.33998-1.618245-44.17806-14.618113.05398-5.016526 7.38989-9.331846 19.14907-9.439729 13.21583-.107883 29.93803 6.904512 29.93803 6.904512l10.62637-16.8836557S361.75754.04473843 343.20153.04473843c-28.37276 0-41.69654 12.51442757-41.69654 28.04951257s8.95449 22.331713 13.80889 24.705139c15.75065 7.659693 33.44373 5.555941 42.9373 10.356768 10.41047 5.178051 6.31105 17.638904-15.04965 15.912376-15.69667-1.294063-24.97501-4.422603-36.24842-11.111482l-11.65123 16.290399c21.95376 13.539016 43.1532 15.696676 47.89965 15.750651 16.56027.107948 43.47705-4.31532 43.09922-31.609918-.16192-11.111683-5.55607-18.987075-18.44805-24.435199Z"/></svg>