<?xml version="1.0" encoding="UTF-8" standalone="no"?>
<!-- Generator: Adobe Illustrator 16.0.0, SVG Export Plug-In . SVG Version: 6.00 Build 0)  -->

<svg
   xmlns:dc="http://purl.org/dc/elements/1.1/"
   xmlns:cc="http://creativecommons.org/ns#"
   xmlns:rdf="http://www.w3.org/1999/02/22-rdf-syntax-ns#"
   xmlns:svg="http://www.w3.org/2000/svg"
   xmlns="http://www.w3.org/2000/svg"
   xmlns:sodipodi="http://sodipodi.sourceforge.net/DTD/sodipodi-0.dtd"
   xmlns:inkscape="http://www.inkscape.org/namespaces/inkscape"
   version="1.1"
   id="svg2"
   inkscape:version="0.92.2 (5c3e80d, 2017-08-06)"
   inkscape:export-ydpi="90"
   sodipodi:docname="NBC 2014 2D.svg"
   inkscape:export-xdpi="90"
   inkscape:export-filename="C:\Users\iampears\Pictures\NBC 2014 Ident Style.png"
   x="0px"
   y="0px"
   width="1000"
   height="904.401"
   viewBox="0.462 0.009 1000 904.40098"
   enable-background="new 0.462 0.009 594.355 537.536"
   xml:space="preserve"><metadata
     id="metadata16066"><rdf:RDF><cc:Work
         rdf:about=""><dc:format>image/svg+xml</dc:format><dc:type
           rdf:resource="http://purl.org/dc/dcmitype/StillImage" /><dc:title></dc:title></cc:Work></rdf:RDF></metadata><defs
     id="defs16064" /><sodipodi:namedview
     pagecolor="#ffffff"
     bordercolor="#666666"
     borderopacity="1"
     objecttolerance="10"
     gridtolerance="10"
     guidetolerance="10"
     inkscape:pageopacity="0"
     inkscape:pageshadow="2"
     inkscape:window-width="1366"
     inkscape:window-height="705"
     id="namedview16062"
     showgrid="false"
     inkscape:zoom="0.43904035"
     inkscape:cx="297.17749"
     inkscape:cy="450.9836"
     inkscape:window-x="-8"
     inkscape:window-y="-8"
     inkscape:window-maximized="1"
     inkscape:current-layer="svg2" /><g
     id="g16059"
     transform="matrix(1.6824944,0,0,1.6824944,-0.31518712,-0.00644172)"><path
       id="path5264"
       inkscape:connector-curvature="0"
       d="m 228.737,0.033 c -1.805,0.032 -3.634,0.12 -5.432,0.289 -0.524,0.049 -1.036,0.112 -1.56,0.173 -2.905,0.337 -5.771,0.869 -8.61,1.56 -0.207,0.05 -0.429,0.063 -0.635,0.116 -0.347,0.087 -0.695,0.196 -1.041,0.289 -0.978,0.263 -1.923,0.562 -2.889,0.867 -0.523,0.165 -1.041,0.342 -1.561,0.52 -0.246,0.084 -0.505,0.144 -0.751,0.231 -0.733,0.261 -1.471,0.523 -2.195,0.809 -0.602,0.236 -1.197,0.498 -1.791,0.751 -0.43,0.183 -0.847,0.386 -1.271,0.578 -0.267,0.12 -0.545,0.224 -0.81,0.347 -0.588,0.276 -1.152,0.574 -1.733,0.867 -0.738,0.372 -1.471,0.756 -2.195,1.155 -0.46,0.254 -0.934,0.486 -1.387,0.751 -0.155,0.09 -0.309,0.197 -0.462,0.289 -0.676,0.403 -1.362,0.844 -2.022,1.271 -0.688,0.443 -1.354,0.917 -2.022,1.387 -0.284,0.2 -0.587,0.374 -0.867,0.578 -0.178,0.129 -0.344,0.273 -0.52,0.405 -0.868,0.646 -1.709,1.33 -2.543,2.022 -0.792,0.658 -1.551,1.323 -2.312,2.021 -0.857,0.79 -1.728,1.585 -2.542,2.427 -18.795,18.861 -26.681,46.419 -18.259,72.806 1.144,2.596 2.268,5.203 3.409,7.801 C 147.215,81.275 117.96,74.84 91.445,84.51 c -20.032,7.484 -36.899,26.479 -42.297,46.746 -7.219,27.044 -0.146,56.561 21.148,74.366 1.817,1.258 3.667,2.497 5.489,3.756 -12.021,-1.347 -24.45,0.444 -34.727,5.663 -14.706,6.09 -28.595,21.486 -35.017,36.865 -10.009,22.406 -6.106,53.188 8.147,72.283 14.168,18.314 33.126,28.199 55.298,27.564 l 213.391,0.229 v 0 h 29.533 -0.007 l 213.39,-0.229 c 1.386,0.039 2.742,0.043 4.104,0 20.402,-0.629 37.911,-10.396 51.194,-27.564 14.254,-19.096 18.156,-49.877 8.147,-72.283 -6.422,-15.379 -20.312,-30.775 -35.019,-36.865 -10.274,-5.219 -22.705,-7.01 -34.727,-5.663 1.822,-1.258 3.672,-2.498 5.489,-3.756 21.296,-17.806 28.365,-47.322 21.146,-74.366 -5.396,-20.268 -22.265,-39.262 -42.297,-46.746 -26.514,-9.67 -55.771,-3.236 -75.29,15.833 1.141,-2.598 2.265,-5.205 3.409,-7.801 8.422,-26.387 0.535,-53.945 -18.26,-72.806 -0.771,-0.796 -1.563,-1.563 -2.369,-2.312 -0.052,-0.047 -0.122,-0.069 -0.173,-0.116 -0.387,-0.354 -0.765,-0.697 -1.156,-1.04 -0.382,-0.333 -0.768,-0.659 -1.155,-0.982 -0.834,-0.692 -1.675,-1.376 -2.542,-2.022 -0.177,-0.131 -0.343,-0.275 -0.521,-0.405 -0.703,-0.512 -1.415,-1.02 -2.14,-1.502 -0.245,-0.163 -0.505,-0.303 -0.751,-0.462 -0.661,-0.428 -1.347,-0.868 -2.021,-1.271 -0.322,-0.191 -0.657,-0.392 -0.982,-0.578 -0.632,-0.362 -1.264,-0.699 -1.907,-1.04 -0.385,-0.204 -0.767,-0.382 -1.153,-0.578 -0.581,-0.293 -1.146,-0.591 -1.733,-0.867 -0.459,-0.214 -0.924,-0.432 -1.387,-0.635 -0.535,-0.236 -1.077,-0.472 -1.618,-0.693 -0.536,-0.219 -1.076,-0.43 -1.618,-0.636 -0.478,-0.182 -0.962,-0.349 -1.444,-0.52 C 388.41,3.86 387.79,3.64 387.17,3.441 c -0.423,-0.137 -0.847,-0.275 -1.271,-0.404 -0.696,-0.21 -1.378,-0.389 -2.08,-0.578 -0.347,-0.093 -0.694,-0.201 -1.04,-0.289 -0.207,-0.052 -0.431,-0.065 -0.638,-0.116 -2.84,-0.691 -5.704,-1.223 -8.607,-1.56 -0.155,-0.018 -0.31,-0.041 -0.463,-0.058 -1.011,-0.111 -1.991,-0.221 -3.004,-0.289 -0.077,-0.005 -0.155,0.005 -0.231,0 -1.091,-0.069 -2.202,-0.096 -3.294,-0.116 -1.164,-0.021 -2.303,-0.036 -3.467,0 -2.116,0.066 -4.257,0.203 -6.356,0.462 -6.298,0.779 -12.451,2.454 -18.259,4.969 -13.221,5.736 -25.708,16.428 -33.57,29.469 -0.762,1.442 -1.51,2.907 -2.195,4.392 -1.387,2.97 -2.592,6.052 -3.642,9.188 -0.513,1.533 -1.028,3.05 -1.444,4.623 -0.416,-1.566 -0.876,-3.095 -1.387,-4.623 -1.049,-3.136 -2.255,-6.217 -3.641,-9.188 -0.688,-1.485 -1.436,-2.949 -2.196,-4.392 C 282.522,21.89 270.034,11.199 256.814,5.462 249.071,2.108 240.663,0.296 232.199,0.03 231.04,-0.002 229.902,0.013 228.737,0.033 Z"
       style="fill:#ffffff" /><path
       id="path3348-8"
       inkscape:connector-curvature="0"
       d="m 233.617,11.799 c -15.924,-0.499 -32.102,5.312 -43.279,16.873 -16.073,16.13 -22.804,39.666 -15.602,62.232 28.111,63.812 55.243,128.116 85.056,191.145 13.304,-66.014 18.97,-134.469 31.145,-201.025 2.203,-14.551 -1.462,-27.826 -7.569,-39.408 -6.725,-11.153 -17.411,-20.288 -28.718,-25.193 -6.623,-2.87 -13.796,-4.397 -21.033,-4.624 z"
       style="fill:#cc004c" /><path
       id="path3352-7"
       inkscape:connector-curvature="0"
       d="m 169.157,121.342 86.777,191.5 C 196.56,274.967 135.764,235.484 78.257,195.807 60.446,180.967 54.522,156.365 60.559,133.826 65.073,116.932 79.21,101.147 95.964,94.909 c 27.513,-10 58.543,0.612 73.193,26.433"
       style="fill:#f37021" /><path
       id="path3356-7"
       inkscape:connector-curvature="0"
       d="m 16.011,256.875 c -9.082,18.521 -5.537,43.959 7.396,59.749 12.856,15.137 30.033,23.34 50.151,22.813 L 267.195,339.59 104.988,230.095 C 89.166,220.184 65.06,218.376 47.744,226.387 34.399,231.421 21.838,244.16 16.011,256.875"
       style="fill:#fcb711" /><path
       id="path6968-9"
       inkscape:connector-curvature="0"
       d="m 361.835,11.799 c -7.238,0.227 -14.469,1.754 -21.091,4.623 -11.309,4.905 -21.993,14.04 -28.718,25.193 -4.845,9.185 -8.149,19.414 -8.205,30.509 h 0.173 0.347 0.116 0.866 5.952 22.882 c 4.099,0.741 8.229,2.686 6.991,5.084 -0.01,0.019 0.008,0.04 0,0.058 -0.035,0.064 -0.072,0.108 -0.115,0.173 -0.134,0.229 -0.329,0.468 -0.578,0.693 -0.188,0.169 -0.391,0.353 -0.636,0.52 -0.417,0.3 -0.896,0.559 -1.502,0.867 -0.026,0.013 -0.031,0.044 -0.06,0.058 -0.543,0.271 -1.203,0.534 -1.907,0.809 -0.649,0.22 -1.272,0.448 -1.905,0.693 -12.857,4.988 -21.82,15.059 -25.366,22.419 l -0.115,0.231 c -0.209,0.467 -0.3,1.002 -0.347,1.56 -0.054,0.609 -0.063,1.176 0,1.733 l 0.058,0.636 c 0.011,0.056 -0.011,0.117 0,0.173 l 0.289,1.791 1.099,7.223 7.915,50.906 v 0.115 c 0.05,0.346 0.068,0.693 0.116,1.039 0.146,1.08 0.315,2.156 0.462,3.236 l 0.06,0.348 c 4.354,31.998 8.752,63.986 14.677,95.457 0.025,0.133 0.032,0.271 0.058,0.403 l 1.215,7.974 c 0.38,1.899 0.701,3.825 1.099,5.721 0.019,-0.039 0.039,-0.076 0.058,-0.114 29.803,-62.979 56.903,-127.263 84.998,-191.029 7.202,-22.566 0.474,-46.16 -15.602,-62.29 C 393.936,17.053 377.758,11.3 361.835,11.799 Z"
       style="fill:#6460aa" /><path
       id="path6970-1"
       inkscape:connector-curvature="0"
       d="m 426.241,121.342 -86.777,191.826 c 58.45,-37.873 117.882,-79.645 176.37,-119.649 17.811,-14.84 25.042,-37.154 19.005,-59.693 -4.514,-16.894 -18.651,-32.679 -35.405,-38.917 -27.514,-10 -58.544,0.612 -73.193,26.433"
       style="fill:#0089d0" /><path
       id="path6972-5"
       inkscape:connector-curvature="0"
       d="m 579.386,256.875 c 9.082,18.521 5.537,43.959 -7.396,59.749 -12.856,15.137 -30.033,23.34 -50.151,22.813 L 328.202,339.59 490.411,230.094 c 15.821,-9.911 39.927,-11.719 57.244,-3.708 13.343,5.035 25.905,17.774 31.731,30.489"
       style="fill:#0db14b" /><g
       id="g16057"><g
         id="g16055"><g
           id="g16053"><polygon
             points="61.063,532.74 88.045,532.74 88.045,423.637 88.287,423.637 179.119,532.74 202.969,532.74 202.969,375.477 175.988,375.477 175.988,484.564 175.746,484.564 84.914,375.477 61.063,375.477 "
             id="polygon16047" /><path
             d="m 318.384,532.729 c 22.648,0 33.01,-6.264 40.717,-13.484 10.601,-10.119 14.458,-21.916 14.458,-33.471 0,-19.268 -10.362,-35.406 -28.679,-39.742 11.338,-4.568 20.004,-17.582 20.004,-32.025 0,-9.629 -3.859,-18.059 -10.6,-24.805 -7.717,-7.701 -20.004,-13.73 -37.824,-13.73 H 221.285 V 532.73 h 97.099 z m 0.965,-70.569 c 7.953,0 14.932,3.373 19.76,8.434 3.848,4.09 6.257,9.16 6.257,14.938 0,5.779 -2.409,11.797 -6.505,15.898 -4.816,4.818 -12.048,7.23 -19.512,7.23 h -71.081 v -46.5 z m -5.783,-62.607 c 7.468,0 13.246,1.688 17.594,6.021 3.367,3.371 5.529,8.189 5.529,13.486 0,5.781 -2.409,11.564 -6.505,15.66 -4.332,4.332 -10.114,5.777 -16.618,5.777 h -65.299 v -40.945 h 65.299 z"
             id="path16049"
             inkscape:connector-curvature="0" /><path
             d="m 526.796,486.977 c -13.498,14.453 -34.459,26.48 -59.031,26.48 -35.179,0 -58.064,-26.48 -58.064,-59.232 0,-32.508 22.4,-59.488 56.861,-59.488 19.275,0 40.955,8.428 54.938,21.676 l 18.306,-18.061 c -17.593,-16.383 -45.05,-27.693 -73.728,-27.693 -50.357,0 -84.809,37.809 -84.809,83.322 0,46.238 34.214,83.564 86.016,83.564 34.213,0 60.709,-15.895 77.576,-32.752 z"
             id="path16051"
             inkscape:connector-curvature="0" /></g></g></g></g></svg>