<svg width="159" height="53" viewBox="0 0 3000 1000" xmlns="http://www.w3.org/2000/svg"><path d="m1000 0h-1000v1000h1000z" fill="#d62021"/><path d="m3000 0h-1000v1000h1000z" fill="#237bbd"/><path d="m2000 0h-1000v1000h1000z"/><path d="m554.7 212.2c-72 .2-144.2 26-165.2 97.9l-7.4-85.1h-113.1v549.4h127.3v-338.4c0-58.7 49.5-109.8 110.8-110.2 63.1-.7 110.7 45.9 110.7 115.6v333.1h129.1v-331.3c-1.8-130.9-46.5-231.4-192.2-231zM2666.7 225.2c-131.2-36.6-198.6 32.1-212.9 85l-7.5-85.2h-112.9v549h127.3v-331.2c0-80.4 71.4-122.2 127.5-116.2 45.1 4.9 62.6 18.5 78.5 27.2zM1527.7 211.9c-75.1 0-140.3 47.5-155.8 98.3l-7.6-85.3h-112.8v644.6h127.1v-172.5c10 40.8 69.6 81.6 152.6 81.6 180.1 0 248.8-139.6 248.8-280-.1-130.4-71.1-286.8-252.3-286.7zm-4 451.5c-97.8 0-141.6-82-141.6-164 0-82.1 46.8-169.3 141.6-169.3s140.6 86.3 140.6 169.3-43.8 164-140.6 164z" fill="#fff"/></svg>