<svg height="326.598632" viewBox="0 0 39.81 42.637" width="306.186218" xmlns="http://www.w3.org/2000/svg"><g fill="#0a145a" transform="matrix(.098054 0 0 .098054 -18.9342274 -8.171444432)"><path d="m288.2 248.1v121h-21.2l-44.3-77v77h-22.7v-121h22.6l42.5 75.2v-75.2zm83.2 100.8v20.1h-63.3v-121h62.6v20.1h-37.2v29.9h34.5v20.1h-34.5v30.8zm151.4-100.8-28.3 121h-22.4l-19.7-84.5-19.9 84.4h-23.1l-27.7-121h25.8l14.8 81.8 19-81.8h24.2l17.6 81.8 15.7-81.8h24zm20 120.9c-4.9-.9-9-2.3-12.4-3.9v-24c3.4 2.1 7.4 3.9 11.8 5.4s8.7 2.2 12.9 2.2c5.2 0 9.2-1.2 11.9-3.6s4.1-5.7 4.1-9.7c0-3.9-1.3-7.3-3.9-10.1s-7.1-6-13.5-9.5c-8.8-4.9-15.1-10.1-18.9-15.6s-5.7-12.2-5.7-20c0-10.4 3.6-18.6 10.9-24.6s16.9-9 28.7-9c7.8 0 15.4 1 22.8 3v22.4c-6.4-2.5-12.9-3.7-19.6-3.7-4.9 0-8.7 1-11.7 3-2.9 2-4.4 5-4.4 8.9 0 2.5.6 4.6 1.9 6.4 1.2 1.8 2.9 3.4 5.1 4.8 2.1 1.4 5.5 3.4 10.1 6 8.9 5 15.1 10.4 18.7 16.4 3.6 5.9 5.3 12.8 5.3 20.6 0 10.9-3.4 19.6-10.3 26.1s-16.7 9.8-29.4 9.8c-4.6.2-9.5-.3-14.4-1.3zm-342.8 26h25.4v49.6h34.9v-49.6h25.4v121h-25.4v-50.2h-34.9v50.2h-25.4zm124.3 115.2c-7.2-4.7-12.9-11.7-17-21-4.1-9.2-6.1-20.5-6.1-33.6 0-20.4 4.4-35.8 13.3-46.3 8.8-10.5 20.7-15.7 35.7-15.7 9.6 0 18.1 2.2 25.3 6.7 7.3 4.4 13 11.3 17.3 20.5 4.2 9.2 6.3 21.3 6.3 35 0 20.2-4.4 34.9-13.3 45.6-8.8 10.7-20.3 16.1-35.7 16.1-9.5-.2-18.6-2.5-25.8-7.3zm42.1-24.4c3.7-6.3 5.6-16.2 5.6-30.2 0-13.8-1.9-24.2-5.8-30.5s-9.3-9.5-16.1-9.5c-6.9 0-12.1 3.2-16 9.6s-5.9 16.9-5.9 30.4c0 13.6 1.9 23.6 5.7 30.2 3.7 6.4 9.1 9.5 16.2 9.5 7.2 0 12.5-3.2 16.3-9.5zm58 20.3c-6.8-7.5-10.2-18.5-10.2-32.8v-78.3h25.4v78.3c0 7.4 1.3 12.2 4 16.1s7 5.8 12.9 5.8c11.3 0 16.9-6.7 16.9-21.9v-78.3h25.6v78.3c0 30-14.1 44.1-42.3 44.1-14.8-.1-25.5-3.8-32.3-11.3zm146.6 9.8-17.4-43.9h-9.6v43.9h-25.4v-120.9h32c13.3 0 23.5 3.4 30.8 10.1 7.2 6.8 10.9 15.7 10.9 26.7 0 7.1-1.5 13.5-4.4 19.2-3 5.7-7.1 10.3-12.3 13.9l23.5 51.1h-28.1zm-9.4-69.3c2.8-3.4 4.3-8.1 4.3-14.1 0-5.5-1.5-9.7-4.5-12.8s-7.2-4.6-12.5-4.6h-4.9v36.6h4.3c6 0 10.4-1.7 13.3-5.1z"/><path d="m539 173.4c0 15.5-11.6 25.1-30.1 25.1-8.2 0-17.7-3.7-22.1-6.8v-17.3c4.7 3.8 12 8.5 22.3 8.5 7.4 0 11.8-2.9 11.8-8 0-6-4-8.4-14.5-14-10.7-5.6-20.3-12.5-20.3-26.9 0-12.2 8.5-23.6 27.5-23.6 6.7 0 14.2 2 19.6 4.3v16.3c-5.2-3.1-12-5.6-19.6-5.6-6.4 0-10.3 2.8-10.3 7.2 0 6.3 6.4 9.6 14.2 13.7 7.8 4.2 21.5 11.1 21.5 27.1zm-130-32.7c0 18.2-13.2 29.5-34.5 29.5h-3.4v27.5h-17v-86.4h22.8c20.1 0 32.1 11 32.1 29.4zm-37.9 14.9h5.1c10.4 0 16.3-5.6 16.3-15.2 0-8.9-6.4-14.7-16.4-14.7h-5zm106.5 15.9c0 12.6-9.6 26.2-30.7 26.2h-27.5v-86.4h26.4c16.1 0 26.2 8.5 26.2 22.1 0 7.9-2.8 13.7-8.6 17.8 8.7 2.7 14.2 10.4 14.2 20.3zm-41.3-45.7v21.2h7.2c7.2 0 11.9-4.2 11.9-10.7 0-6.4-4.3-10.6-11-10.6h-8.1zm9.2 57.5c10.1 0 15.3-3.8 15.3-11.3 0-7-5.1-11.2-13.7-11.2h-10.8v22.6h9.2z"/><path d="m337.1 154.5c0 39.8-32.2 72-72 72s-72-32.2-72-72 32.2-72 72-72c39.7 0 72 32.2 72 72"/></g><g fill="#fff" transform="matrix(.098054 0 0 .098054 0 -.08197913633)"><path d="m124.4 72.7-8 1.6v14.8c0 5-4.1 8.9-9.4 8.9h-4.1v17.2h-13.2v-17.2h4.1c5.3 0 9.4-4 9.4-8.9v-14.8l8-1.6c1.7-.4 2.6-2.3 1.8-3.8l-21-40.1h13.1l21 40.1c.9 1.5 0 3.4-1.7 3.8z"/><path d="m97.5 68.9-21-40.1h-21.7c-19.7 0-36.5 16.1-36 35.9.3 14.7 9.8 25.7 23 29.9v20.6h32.4v-17.2h4.1c5.3 0 9.4-4 9.4-8.9v-14.8l8-1.6c1.7-.4 2.6-2.3 1.8-3.8zm-27.3-2.3c-4.5 0-8.2-3.7-8.2-8.2s3.7-8.2 8.2-8.2 8.2 3.7 8.2 8.2-3.7 8.2-8.2 8.2z"/></g></svg>