<svg width="166" height="30" viewBox="0 0 166 30" fill="none" xmlns="http://www.w3.org/2000/svg">
<g clip-path="url(#clip0_2354_5514)">
<path d="M127.951 25.5947C125.243 25.5947 122.819 24.5857 120.752 22.58C118.672 20.5865 117.614 18.0148 117.614 14.9139C117.614 11.813 118.636 9.45037 120.641 7.44463C122.647 5.41427 125.145 4.38064 128.061 4.38064C130.978 4.38064 132.946 5.20508 134.817 6.82937C135.481 5.56193 136.318 4.35603 137.315 3.22395C134.669 1.10746 131.593 0.0246087 128.123 0.0246087C124.653 0.0246087 120.395 1.48892 117.442 4.39294C114.476 7.29696 112.975 10.8162 112.975 14.8523C112.975 18.8884 114.624 23.2199 117.873 26.0623C120.826 28.6218 124.197 29.9262 127.901 29.9262C131.605 29.9262 134.583 28.8556 137.253 26.7884C136.257 25.6686 135.42 24.4504 134.768 23.1337C132.873 24.758 130.584 25.5824 127.951 25.5824V25.5947Z" fill="#D71920"/>
<path d="M38.5658 29.9877C34.8497 29.9877 31.4781 28.6833 28.5125 26.1116C25.2516 23.2568 23.6028 19.4791 23.6028 14.8769C23.6028 10.2748 25.104 7.29697 28.0818 4.38064C31.0474 1.47662 34.6405 0 38.7873 0C42.9342 0 46.4534 1.48893 49.3821 4.41756C52.323 7.34619 53.8242 10.9147 53.8242 15.0369C53.8242 19.1591 52.323 22.7276 49.3698 25.6194C46.3919 28.5111 42.7619 29.9877 38.5658 29.9877ZM38.7381 4.36833C35.8218 4.36833 33.3115 5.40197 31.3058 7.44463C29.2877 9.45037 28.2787 11.9729 28.2787 14.9262C28.2787 17.8794 29.337 20.6112 31.4165 22.6169C33.4961 24.6226 35.9202 25.6317 38.6274 25.6317C41.3345 25.6317 44.0909 24.598 46.1212 22.5677C48.1516 20.5127 49.1729 17.9655 49.1729 15.0123C49.1729 12.0591 48.1639 9.47498 46.1581 7.45693C44.1647 5.41427 41.679 4.38064 38.7381 4.38064V4.36833Z" fill="#D71920"/>
<path d="M71.8883 30H56.4823V0H61.269V25.4717H71.8883V30Z" fill="#D71920"/>
<path d="M79.2346 30H74.4478V0H79.2346V30Z" fill="#D71920"/>
<path d="M94.8374 30H90.0507V4.5283H81.8309V0H103.254V4.516H94.8374V30Z" fill="#D71920"/>
<path d="M110.563 30H105.777V0H110.563V30Z" fill="#D71920"/>
<path d="M150.469 29.9877C146.765 29.9877 143.394 28.6833 140.428 26.1239C137.18 23.2814 135.531 19.5037 135.531 14.9016C135.531 10.2994 137.032 7.33388 139.997 4.42986C142.951 1.52584 146.556 0.0615235 150.691 0.0615235C154.825 0.0615235 158.344 1.55045 161.273 4.47908C164.214 7.40771 165.703 10.9762 165.703 15.0738C165.703 19.1715 164.202 22.7646 161.249 25.6317C158.283 28.5234 154.653 29.9877 150.469 29.9877ZM150.641 4.40525C147.725 4.40525 145.227 5.43888 143.221 7.46924C141.216 9.47498 140.194 11.9975 140.194 14.9508C140.194 17.904 141.253 20.6358 143.332 22.6292C145.412 24.6226 147.824 25.644 150.531 25.644C153.238 25.644 155.994 24.6103 158.012 22.58C160.03 20.525 161.064 17.9778 161.064 15.0369C161.064 12.096 160.055 9.51189 158.061 7.48154C156.068 5.45119 153.582 4.41755 150.654 4.41755L150.641 4.40525Z" fill="#D71920"/>
<path d="M5.08359 30H0.296875V0.0369148H12.0114C17.5364 0.0369148 22.0278 4.5283 22.0278 10.0533C22.0278 15.5783 17.5364 20.0697 12.0114 20.0697H5.08359V30ZM5.08359 15.7014H12.0114C15.1246 15.7014 17.6472 13.1788 17.6472 10.0656C17.6472 6.95242 15.1246 4.42986 12.0114 4.42986H5.08359V15.7014Z" fill="#D71920"/>
</g>
<defs>
<clipPath id="clip0_2354_5514">
<rect width="165.406" height="30" fill="white" transform="translate(0.296875)"/>
</clipPath>
</defs>
</svg>
