<svg width="134" height="50" xmlns="http://www.w3.org/2000/svg"><g fill="none" fill-rule="evenodd"><path d="M0 0h134.17v50H0z"/><g fill-rule="nonzero"><path fill="#221F20" d="M75.434 15.839v.19h1.645l-4.183 13.568-4.954-13.567h1.63v-.191h-6.64v.19h1.747l6.859 18.754 5.896-18.753h1.583v-.191zM106.448 15.839h6.66v.191h-1.766v14.461c0 2.265 2.333 3.644 4.374 3.644 2.197 0 4.047-1.529 4.047-3.774v-14.33h-2.089v-.192h15.664v6.709h-.13c-.198-1.775-.538-3.598-1.76-4.983-1.236-1.399-2.915-1.535-4.64-1.535h-1.864v8.626c.383.04.772.068 1.16.068 2.341 0 2.948-1.61 3.051-3.603h.17v7.568h-.17c-.293-1.808-1.092-3.747-3.215-3.747-.334 0-.661.021-.996.048v9.227h2.791c1.447 0 2.887-.628 3.911-1.638a5.95 5.95 0 0 0 1.692-3.187c.116-.675.17-1.364.205-2.047h.15v7.063h-13.437v-.191h1.562V16.03h-1.776v14.385c0 2.976-2.825 4.293-5.473 4.293-2.996 0-6.3-1.453-6.3-4.88V16.03h-1.82v-.191z"/><path d="M88.205 25.195c0-2.71-.97-9.479-4.634-9.479-3.678 0-4.634 6.763-4.634 9.48 0 2.715.963 9.485 4.634 9.485 3.665 0 4.634-6.777 4.634-9.486m-4.647 9.766c-2.205 0-4.314-1.236-5.678-2.921-1.556-1.918-2.314-4.395-2.314-6.845 0-2.355.696-4.723 2.136-6.6 1.42-1.841 3.555-3.159 5.93-3.159 2.184 0 4.28 1.25 5.624 2.914 1.549 1.918 2.32 4.402 2.32 6.852 0 2.347-.703 4.715-2.136 6.592-1.406 1.829-3.528 3.167-5.882 3.167" fill="#221F20"/><path d="M62.191 34.705h-5.45l2.37-10.725c.048-.306.095-.596.142-.867.047-.27.071-.549.071-.831 0-.426-.077-.774-.23-1.045a1.778 1.778 0 0 0-.549-.62 2.15 2.15 0 0 0-.672-.3 2.567 2.567 0 0 0-.602-.089c-.425 0-.826.095-1.203.283-.378.19-.708.425-.992.708-.448.449-.796 1.01-1.044 1.682a16.753 16.753 0 0 0-.62 2.105l-2.23 9.7h-5.45l4.141-18.23h5.487l-.531 2.195.832-.832c.318-.319.69-.608 1.115-.867a7.37 7.37 0 0 1 1.469-.673c.554-.188 1.185-.283 1.893-.283.684 0 1.333.1 1.947.301.613.2 1.15.502 1.61.902.46.402.82.897 1.08 1.487.26.59.39 1.274.39 2.053 0 .33-.03.667-.089 1.009-.06.342-.112.678-.16 1.009l-2.725 11.928zM34.759 22.033c.213-.4.49-.778.832-1.132a4.44 4.44 0 0 1 1.221-.885c.472-.236 1.05-.354 1.735-.354.684 0 1.32.165 1.91.495.378.213.674.455.886.726.212.271.365.549.46.832.094.283.153.548.177.796.023.248.036.455.036.62h-7.788c.141-.33.318-.696.531-1.098m-4.566 10.39c.708.837 1.628 1.516 2.76 2.035.2.091.41.172.625.247h7.089c.018-.006.039-.01.056-.017 1.003-.366 1.847-.82 2.531-1.363.685-.543 1.244-1.12 1.682-1.735.436-.613.808-1.167 1.115-1.663l-4.567-1.628c-.141.236-.318.508-.53.814-.213.307-.49.601-.832.885a4.684 4.684 0 0 1-1.275.726c-.507.2-1.114.3-1.823.3-1.298 0-2.277-.472-2.937-1.416a2.822 2.822 0 0 1-.514-1.274c-.059-.448-.088-1.038-.088-1.77h13.273a20.766 20.766 0 0 0 .142-2.408c0-1.485-.242-2.76-.725-3.821-.484-1.062-1.116-1.923-1.894-2.585a7.445 7.445 0 0 0-2.69-1.45 10.718 10.718 0 0 0-3.115-.46c-1.818 0-3.375.353-4.673 1.06-1.298.709-2.366 1.594-3.203 2.656a11.018 11.018 0 0 0-1.858 3.45c-.402 1.24-.602 2.39-.602 3.452 0 1.039.165 2.083.495 3.133.33 1.05.85 1.994 1.558 2.831" fill="#ED1C24"/><path d="M16.211 22.033c.213-.4.49-.778.832-1.132a4.44 4.44 0 0 1 1.221-.885c.472-.236 1.05-.354 1.735-.354.684 0 1.321.165 1.911.495.377.213.673.455.885.726.213.271.366.549.46.832.094.283.153.548.177.796.023.248.036.455.036.62H15.68c.142-.33.319-.696.531-1.098m-4.566 10.39c.708.837 1.628 1.516 2.761 2.035.2.091.41.172.624.247h7.089c.018-.006.039-.01.057-.017 1.002-.366 1.846-.82 2.53-1.363.685-.543 1.245-1.12 1.682-1.735.436-.613.808-1.167 1.115-1.663l-4.566-1.628c-.142.236-.319.508-.531.814-.213.307-.49.601-.832.885a4.684 4.684 0 0 1-1.274.726c-.508.2-1.116.3-1.823.3-1.298 0-2.278-.472-2.938-1.416a2.822 2.822 0 0 1-.513-1.274c-.06-.448-.089-1.038-.089-1.77h13.274a20.766 20.766 0 0 0 .142-2.408c0-1.485-.243-2.76-.726-3.821-.484-1.062-1.115-1.923-1.894-2.585a7.442 7.442 0 0 0-2.69-1.45 10.718 10.718 0 0 0-3.115-.46c-1.817 0-3.375.353-4.672 1.06-1.299.709-2.366 1.594-3.204 2.656a11.018 11.018 0 0 0-1.858 3.45c-.402 1.24-.602 2.39-.602 3.452 0 1.039.165 2.083.496 3.133.33 1.05.85 1.994 1.557 2.831" fill="#ED1C24"/><path d="M.39 29.006c-.048.331-.101.656-.16.974-.059.319-.088.643-.088.973 0 1.015.217 1.8.654 2.354.437.555.974.962 1.61 1.222.171.07.345.125.52.176H7.86c.093-.012.187-.022.28-.035l.956-4.212H8.035c-.26 0-.507-.018-.743-.053a2.004 2.004 0 0 1-.655-.213 1.16 1.16 0 0 1-.478-.478c-.118-.212-.177-.507-.177-.884 0-.189.03-.43.089-.726.058-.295.111-.572.159-.832l1.734-7.61h3.15l.744-3.646H.743L0 19.662h2.478L.389 29.006z" fill="#ED1C24"/><path d="M104.967 15.511v6.518h-.15c-.28-1.284-.676-2.532-1.365-3.665-.819-1.324-2.122-2.812-3.822-2.812-3.903 0-4.258 6.995-4.258 9.664 0 2.389.191 4.852 1.058 7.09.607 1.57 1.487 2.341 3.119 2.341 1.296 0 2.675-.655 3.364-1.781.177-.294.19-.621.19-.956v-5.037h-1.706v-.197h6.245v.198h-1.46v7.534h-.13c-.369-.614-.949-1.017-1.693-1.017-.538 0-1.064.191-1.535.45l-.423.233c-.956.423-1.87.73-2.928.73-4.845 0-7.424-5.166-7.424-9.451 0-3.133 1.194-6.485 3.732-8.443 1.14-.88 2.518-1.528 3.986-1.528.573 0 1.14.177 1.672.388l.389.15c.443.164.928.322 1.405.322.594 0 1.126-.39 1.584-.73h.15z" fill="#221F20"/></g></g></svg>